PathFileType	4	(x/y/z)	S04_P20_T18.trc
DataRate	CameraRate	NumFrames	NumMarkers	Units	OrigDataRate	OrigDataStartFrame	OrigNumFrames
240	240	6	51	mm	240	91	363
Frame#	Time	Sternum			R.Acromium			L.Acromium			Top.Head			R.ASIS			L.ASIS			R.PSIS			L.PSIS			R.Great.Tro			L.Great.Tro			R.Iliac.Crest			L.Iliac.Crest			V.Sacral			R.Thigh.Upper.Post			R.Thigh.Lower.Ant			R.Thigh.Lower.Post			R.Thigh.Upper.Ant			R.Knee.Lat			R.Knee.Med			R.Shank.Upper.Post			R.Shank.Lower.Ant			R.Shank.Lower.Post			R.Shank.Upper.Ant			R.Ankle.Lat			R.Ankle.Med			R.Heel.Upper			R.Heel.Med			R.Heel.Lat			R.Toe.Lat			R.Toe.Med			R.Toe.Tip			L.Thigh.Upper.Post			L.Thigh.Lower.Ant			L.Thigh.Lower.Post			L.Thigh.Upper.Ant			L.Knee.Lat			L.Knee.Med			L.Shank.Upper.Post			L.Shank.Lower.Ant			L.Shank.Lower.Post			L.Shank.Upper.Ant			L.Ankle.Lat			L.Ankle.Med			L.Heel.Upper			L.Heel.Med			L.Heel.Lat			L.Toe.Lat			L.Toe.Med			L.Toe.Tip			Cervical.Spine			Back			
		X1	Y1	Z1	X2	Y2	Z2	X3	Y3	Z3	X4	Y4	Z4	X5	Y5	Z5	X6	Y6	Z6	X7	Y7	Z7	X8	Y8	Z8	X9	Y9	Z9	X10	Y10	Z10	X11	Y11	Z11	X12	Y12	Z12	X13	Y13	Z13	X14	Y14	Z14	X15	Y15	Z15	X16	Y16	Z16	X17	Y17	Z17	X18	Y18	Z18	X19	Y19	Z19	X20	Y20	Z20	X21	Y21	Z21	X22	Y22	Z22	X23	Y23	Z23	X24	Y24	Z24	X25	Y25	Z25	X26	Y26	Z26	X27	Y27	Z27	X28	Y28	Z28	X29	Y29	Z29	X30	Y30	Z30	X31	Y31	Z31	X32	Y32	Z32	X33	Y33	Z33	X34	Y34	Z34	X35	Y35	Z35	X36	Y36	Z36	X37	Y37	Z37	X38	Y38	Z38	X39	Y39	Z39	X40	Y40	Z40	X41	Y41	Z41	X42	Y42	Z42	X43	Y43	Z43	X44	Y44	Z44	X45	Y45	Z45	X46	Y46	Z46	X47	Y47	Z47	X48	Y48	Z48	X49	Y49	Z49	X50	Y50	Z50	X51	Y51	Z51	

91	0.375	-834.49	1280.8	252.6	-965.31	1514.3	417.92	-939.53	1498.6	67.594	-928.81	1838.4	234.88	-889.21	1007.2	381.65	-882.74	1015.8	133.97	-1099.2	1038.1	282.75	-1089	1043.5	201.8	-973.51	928.89	449.38	-1004.9	931.7	71.416	-975.91	1096.7	422.88	-972.79	1100.4	87.42	-1115.6	999.04	240.97	-879.92	681.31	446.97	-780.82	630.12	412.8	-847.77	596.41	433.84	-811.27	735.78	431.79	-806.92	539.98	425.66	-821.17	529.41	291.41	-876.36	315.66	420	-803.58	238.89	389.33	-873.12	245.65	406.33	-810.43	308.84	410.53	-857.04	130.13	390.93	-822.05	143.01	307.38	-909.86	92.132	325.39	-892.06	63.481	297.89	-909.45	60.244	359.7	-752.82	64.118	439.99	-694.99	68.905	331.81	-644.35	92.644	388.84	-1041.9	703.84	88.73	-974.59	598.39	100.42	-1044.4	614.49	103.2	-978.09	687.16	82.172	-1021	513.03	113.5	-1020.9	504.11	237.13	-1128.7	345.66	116.02	-1071.9	250.27	122.49	-1134.8	266.67	127.27	-1068.6	326.6	112.67	-1111.2	104.67	145.04	-1112.3	113.94	238.65	-1195.2	75.344	189.33	-1187.6	48.711	222.22	-1188.5	47.276	160.77	-1004.1	42.503	126.8	-975.68	45.068	243.59	-916.65	54.713	195.48	-1003.2	1561.6	242.5	-1092.5	1308.5	217.26
92	0.37917	-829.17	1280.2	252.96	-960.28	1513.6	418.13	-933.76	1498.1	67.827	-923.6	1837.8	235.22	-883.94	1006.6	381.82	-877.7	1015.1	134.16	-1093.9	1037.6	283.03	-1083.7	1043	202.09	-968.61	928.49	449.77	-1000.1	931.26	71.682	-970.59	1096.1	423.07	-967.6	1099.8	87.633	-1110.3	998.55	241.26	-875.17	680.73	447.26	-775.97	629.69	413.26	-842.93	595.88	434.07	-806.56	735.28	432.23	-801.44	539.85	425.99	-815.65	528.92	291.74	-865.64	314.01	420.65	-791.07	239.03	389.91	-860.72	244.13	407.1	-799.61	308.82	411.08	-841.65	128.91	391.7	-807.34	142.58	308.03	-893.87	89.84	326.32	-875.6	61.578	298.77	-892.71	58.006	360.65	-735.91	65.258	440.42	-678.63	71.066	332.09	-628.25	95.965	388.85	-1038.8	703.84	89.147	-972.03	598.05	100.68	-1041.8	614.57	103.42	-974.98	686.85	82.483	-1019.1	512.91	113.58	-1018.9	503.94	237.24	-1127.6	346.01	116.11	-1071.1	250.36	122.52	-1134	266.99	127.42	-1067.5	326.69	112.7	-1111	104.82	145.15	-1112.1	114.1	238.76	-1195.2	75.492	189.44	-1187.5	48.822	222.29	-1188.4	47.458	160.85	-1004	42.5	126.83	-975.6	44.928	243.64	-916.55	54.478	195.52	-997.86	1561	242.63	-1086.9	1308	217.17
93	0.38333	-823.84	1279.5	253.34	-955.23	1512.9	418.36	-928.02	1497.5	68.079	-918.38	1837.2	235.55	-878.64	1006.1	382.01	-872.64	1014.3	134.35	-1088.6	1037	283.33	-1078.5	1042.5	202.39	-963.66	928.06	450.16	-995.35	930.8	71.95	-965.29	1095.5	423.28	-962.4	1099.2	87.854	-1105.1	998.05	241.57	-870.48	680.08	447.55	-771.18	629.18	413.75	-838.16	595.28	434.29	-801.9	734.7	432.7	-796.02	539.67	426.31	-810.19	528.37	292.05	-855.02	312.44	421.3	-778.73	239.27	390.47	-848.44	242.72	407.85	-788.92	308.84	411.6	-826.43	127.87	392.45	-792.82	142.3	308.65	-878.05	87.732	327.25	-859.31	59.859	299.65	-876.13	55.968	361.59	-719.2	66.589	440.82	-662.55	73.382	332.32	-612.43	99.454	388.79	-1035.8	703.81	89.587	-969.42	597.71	100.95	-1039.1	614.62	103.67	-971.83	686.53	82.795	-1017.1	512.78	113.67	-1016.9	503.77	237.36	-1126.4	346.37	116.22	-1070.3	250.47	122.55	-1133.3	267.31	127.59	-1066.3	326.79	112.73	-1110.8	104.98	145.27	-1111.8	114.28	238.87	-1195.1	75.642	189.55	-1187.4	48.944	222.37	-1188.4	47.646	160.94	-1004	42.496	126.86	-975.51	44.788	243.7	-916.45	54.241	195.56	-992.48	1560.4	242.78	-1081.3	1307.4	217.11
94	0.3875	-818.5	1278.8	253.72	-950.16	1512.2	418.6	-922.31	1496.9	68.349	-913.16	1836.6	235.9	-873.32	1005.5	382.2	-867.57	1013.6	134.55	-1083.4	1036.5	283.63	-1073.2	1041.9	202.7	-958.64	927.59	450.54	-990.57	930.32	72.221	-959.99	1094.8	423.49	-957.18	1098.6	88.082	-1099.8	997.52	241.89	-865.83	679.37	447.85	-766.44	628.58	414.25	-833.46	594.62	434.5	-797.27	734.04	433.2	-790.67	539.43	426.62	-804.8	527.76	292.34	-844.49	310.94	421.93	-766.56	239.59	391	-836.31	241.43	408.58	-778.36	308.92	412.09	-811.41	127	393.18	-778.53	142.16	309.24	-862.43	85.799	328.17	-843.24	58.316	300.51	-859.73	54.122	362.53	-702.73	68.096	441.16	-646.77	75.836	332.51	-596.9	103.09	388.66	-1032.7	703.73	90.042	-966.73	597.35	101.23	-1036.3	614.65	103.92	-968.63	686.19	83.108	-1015	512.65	113.76	-1014.8	503.6	237.49	-1125.1	346.74	116.32	-1069.4	250.58	122.58	-1132.5	267.63	127.78	-1065.1	326.89	112.77	-1110.7	105.14	145.39	-1111.6	114.48	238.99	-1194.9	75.798	189.66	-1187.4	49.08	222.45	-1188.4	47.845	161.03	-1004	42.491	126.89	-975.43	44.649	243.75	-916.34	54.001	195.6	-987.09	1559.8	242.95	-1075.7	1306.8	217.07
95	0.39167	-813.15	1278.1	254.11	-945.07	1511.5	418.86	-916.62	1496.2	68.638	-907.93	1835.9	236.25	-867.97	1004.9	382.39	-862.48	1012.8	134.76	-1078.1	1035.9	283.95	-1067.9	1041.4	203.02	-953.55	927.08	450.91	-985.77	929.82	72.495	-954.7	1094.2	423.72	-951.95	1098	88.319	-1094.5	996.97	242.22	-861.21	678.6	448.15	-761.73	627.92	414.76	-828.8	593.88	434.71	-792.66	733.31	433.72	-785.37	539.14	426.92	-799.46	527.1	292.62	-834.09	309.52	422.55	-754.58	239.97	391.5	-824.33	240.23	409.29	-767.95	309.04	412.56	-796.61	126.29	393.87	-764.48	142.15	309.79	-847.04	84.031	329.09	-827.41	56.937	301.37	-843.55	52.455	363.47	-686.52	69.763	441.45	-631.31	78.414	332.66	-581.68	106.87	388.46	-1029.6	703.63	90.508	-963.98	596.99	101.52	-1033.5	614.65	104.19	-965.36	685.84	83.422	-1012.9	512.5	113.86	-1012.7	503.42	237.63	-1123.8	347.12	116.44	-1068.5	250.7	122.62	-1131.7	267.95	127.99	-1063.8	326.99	112.82	-1110.5	105.31	145.52	-1111.3	114.69	239.1	-1194.8	75.962	189.77	-1187.3	49.232	222.53	-1188.3	48.057	161.12	-1003.9	42.484	126.92	-975.34	44.511	243.81	-916.23	53.758	195.64	-981.7	1559.2	243.15	-1070.1	1306.2	217.06
96	0.39583	-807.8	1277.4	254.51	-939.96	1510.7	419.14	-910.94	1495.6	68.944	-902.69	1835.2	236.61	-862.59	1004.3	382.6	-857.38	1012	134.97	-1072.7	1035.4	284.29	-1062.7	1040.8	203.36	-948.36	926.54	451.27	-980.95	929.31	72.771	-949.41	1093.5	423.95	-946.72	1097.3	88.562	-1089.2	996.4	242.58	-856.61	677.78	448.45	-757.06	627.2	415.27	-824.17	593.09	434.91	-788.05	732.52	434.27	-780.13	538.8	427.21	-794.18	526.4	292.88	-823.81	308.17	423.14	-742.8	240.42	391.96	-812.52	239.13	409.96	-757.7	309.19	413	-782.07	125.72	394.54	-750.69	142.24	310.31	-831.91	82.418	329.98	-811.83	55.71	302.19	-827.62	50.955	364.39	-670.6	71.571	441.69	-616.21	81.096	332.77	-566.82	110.75	388.19	-1026.5	703.5	90.979	-961.14	596.61	101.81	-1030.7	614.62	104.48	-962.04	685.47	83.737	-1010.6	512.35	113.97	-1010.4	503.23	237.78	-1122.4	347.51	116.56	-1067.5	250.83	122.66	-1130.8	268.29	128.21	-1062.5	327.09	112.87	-1110.3	105.5	145.65	-1111	114.92	239.21	-1194.6	76.139	189.88	-1187.2	49.404	222.62	-1188.3	48.285	161.22	-1003.9	42.476	126.95	-975.25	44.373	243.86	-916.12	53.512	195.68	-976.31	1558.5	243.36	-1064.6	1305.5	217.07
